PathFileType	4	(X/Y/Z)	s02c0202.trc
DataRate	CameraRate	NumFrames	NumMarkers	Units	OrigDataRate	OrigDataStartFrame	OrigNumFrames
200	200	6	50	mm	200	1250	2000
Frame#	Time	racr			lacr			c7			jug			rlel			rdr			llel			ldr			s2			lic			ric			lasi			rasi			rpsi			lpsi			rgt			lgt			rth1			rth2			rth3			rth4			rlfc			rmfc			rsh1			rsh2			rsh3			rsh4			rlmal			rmmal			rtoe			rmt5			rmt1			lth1			lth2			lth4			lth3			llfc			lmfc			lsh1			lsh2			lsh3			lsh4			llmal			lmmal			lcal			ltoe			lmt5			SBIKE			LBIKE			RBIKE			
		X1	Y1	Z1	X2	Y2	Z2	X3	Y3	Z3	X4	Y4	Z4	X5	Y5	Z5	X6	Y6	Z6	X7	Y7	Z7	X8	Y8	Z8	X9	Y9	Z9	X10	Y10	Z10	X11	Y11	Z11	X12	Y12	Z12	X13	Y13	Z13	X14	Y14	Z14	X15	Y15	Z15	X16	Y16	Z16	X17	Y17	Z17	X18	Y18	Z18	X19	Y19	Z19	X20	Y20	Z20	X21	Y21	Z21	X22	Y22	Z22	X23	Y23	Z23	X24	Y24	Z24	X25	Y25	Z25	X26	Y26	Z26	X27	Y27	Z27	X28	Y28	Z28	X29	Y29	Z29	X30	Y30	Z30	X31	Y31	Z31	X32	Y32	Z32	X33	Y33	Z33	X34	Y34	Z34	X35	Y35	Z35	X36	Y36	Z36	X37	Y37	Z37	X38	Y38	Z38	X39	Y39	Z39	X40	Y40	Z40	X41	Y41	Z41	X42	Y42	Z42	X43	Y43	Z43	X44	Y44	Z44	X45	Y45	Z45	X46	Y46	Z46	X47	Y47	Z47	X48	Y48	Z48	X49	Y49	Z49	X50	Y50	Z50	
1250	6.2500	545.273009	1186.308785	-153.932395	590.975692	1200.343672	-457.331979	551.922253	1231.222009	-304.425457	513.682504	1096.540017	-307.609406	529.239539	965.481278	-26.883519	687.171331	883.189975	-127.458392	533.113434	992.008625	-645.431236	689.435441	879.737234	-543.678297	19.997865	1133.967896	-355.747219	143.541232	1086.565781	-497.279631	135.567494	1135.822274	-202.103241	183.289285	1053.951019	-466.389700	184.169696	1110.929220	-229.190795	35.368743	1169.297320	-314.229480	49.464902	1170.094040	-398.326607	119.887940	1080.468115	-155.781612	88.002477	1011.070661	-508.830305	210.606941	1057.409910	-156.890488	297.622842	1048.232342	-165.664603	370.069223	1008.788360	-141.793321	307.228066	1071.035975	-195.292369	492.243377	926.402164	-173.243243	481.741260	900.047388	-286.609050	467.290473	818.170940	-155.515587	442.343243	733.927881	-169.419824	382.867439	671.693008	-162.228741	455.453041	727.733203	-207.062657	311.347104	569.861949	-162.402042	320.146940	582.225347	-243.903592	507.082704	472.277995	-194.846292	396.378405	478.884076	-136.782396	426.027791	485.453222	-243.644283	183.940596	904.368059	-531.618979	245.806839	842.782869	-534.080595	276.098721	860.483286	-522.612768	267.477825	756.479624	-531.422141	315.704776	670.166037	-508.456003	324.855182	642.378515	-406.019587	276.658850	574.934285	-526.025585	262.311991	491.203747	-508.864463	204.328541	421.797328	-506.405968	283.527813	486.102847	-474.069014	151.099293	330.895487	-488.739375	167.523205	323.778026	-412.010300	75.525116	320.268247	-446.530188	302.430215	143.593250	-440.044414	203.823503	183.124607	-505.031530	-164.895346	856.827111	-316.229027	32.817468	81.588238	-515.419730	33.024884	81.564212	-115.503689	
1251	6.2550	544.033990	1186.457733	-151.917645	592.225675	1198.120467	-455.263784	552.026283	1230.307778	-302.430026	513.152623	1095.792161	-305.046685	528.568906	965.054782	-26.202615	687.071223	883.216096	-127.045034	534.214491	992.278007	-645.884657	689.624458	879.707851	-543.291918	20.460827	1135.195381	-357.308308	144.258313	1087.483109	-498.517443	134.317090	1135.375653	-204.235786	183.979502	1054.975691	-467.474824	183.799772	1110.529281	-230.404545	35.684381	1170.705230	-316.049337	50.011210	1171.288634	-399.979655	119.816960	1079.982582	-157.516168	88.873350	1011.776116	-510.119516	210.544366	1055.314646	-157.056027	297.195937	1044.093284	-165.370316	368.749579	1003.118501	-140.867186	307.509327	1066.305718	-195.085747	489.293737	917.661238	-171.559908	479.383543	892.079044	-284.678948	465.494930	808.600500	-154.330830	441.548851	723.837114	-168.451292	383.184153	660.658765	-161.883336	454.869793	718.222419	-206.128460	313.680502	558.251129	-163.252031	322.260166	570.984598	-244.393908	513.709367	469.907208	-194.253455	402.601673	471.350396	-136.481748	432.110046	479.492989	-243.347699	186.722429	906.123804	-531.667567	249.576123	845.577638	-533.460224	279.468359	863.691025	-521.812729	272.622997	759.605523	-531.059623	321.379055	673.453421	-508.193585	329.534372	645.755161	-405.464233	280.160017	578.627063	-525.399192	263.135289	495.536043	-507.936304	202.932633	428.155111	-505.551517	283.934420	489.851239	-472.907477	146.214882	338.940819	-487.673100	162.619311	331.069422	-410.783433	70.488108	329.598036	-444.994474	293.675064	148.476854	-440.317757	195.632024	190.031127	-504.661650	-164.923287	856.824525	-316.157189	32.804070	81.605759	-515.411669	33.033649	81.515876	-115.518723	
1252	6.2600	542.722892	1186.945952	-149.849680	593.338692	1196.121451	-453.423382	552.226896	1229.327798	-300.775512	512.609862	1095.011275	-302.441743	528.054743	964.749366	-25.659004	687.004847	883.302454	-126.613557	535.217492	992.494709	-646.116411	689.719703	879.612427	-542.992032	20.850165	1136.200915	-358.736425	145.101500	1088.322216	-499.493225	134.036838	1135.136182	-205.418008	184.734126	1055.864451	-468.280758	183.926174	1110.232868	-230.888746	36.031491	1171.887869	-317.800430	50.738346	1172.419172	-401.678932	120.072291	1078.988351	-159.550112	89.933432	1012.307642	-511.499113	210.261237	1052.481355	-157.714334	297.035567	1039.307260	-165.643223	367.396015	997.104490	-139.981624	307.942091	1061.704184	-194.453133	486.116510	908.169342	-169.857451	476.724348	883.381029	-282.544632	463.029332	798.316524	-152.729922	441.118401	713.557242	-166.774760	383.588992	648.479289	-161.534682	454.536649	707.319330	-205.055641	316.544491	546.325500	-163.625489	324.918210	559.198415	-244.837277	519.847403	466.203338	-193.754701	408.648396	463.254626	-136.260154	438.025532	472.862682	-243.103487	189.657409	907.833572	-531.680894	253.498811	848.386581	-532.733467	282.950948	866.987087	-520.931895	277.993815	762.843530	-530.599639	327.174776	676.813499	-507.937336	334.436205	649.195520	-404.749075	283.959422	582.471214	-524.852392	264.158395	500.031299	-507.085837	201.850847	434.615704	-504.725194	284.695796	494.041800	-472.073151	141.909701	347.487640	-486.826699	158.402280	338.872371	-409.857377	66.056630	339.432097	-443.795201	285.518388	153.784741	-440.602199	188.045118	197.582932	-504.261738	-164.896242	856.743831	-316.287435	32.784434	81.614714	-515.404872	33.253816	81.207194	-115.556900	
1253	6.2650	541.829754	1187.226103	-148.145911	594.607853	1194.422789	-451.626187	552.412612	1228.561087	-299.243166	512.770304	1094.242760	-300.277086	527.511397	964.533770	-25.018937	686.971004	883.380586	-126.223934	536.072505	992.621379	-646.225314	689.715669	879.337741	-542.574999	21.120523	1136.934398	-360.073654	146.123902	1088.940949	-500.127138	134.345848	1135.268969	-205.865050	185.498496	1056.363025	-468.708954	184.889083	1110.304020	-230.137061	36.288684	1172.887210	-319.570936	51.686738	1173.225682	-403.346649	120.052949	1077.188859	-161.703894	91.160001	1012.552366	-513.162499	210.329461	1049.711643	-157.670830	296.765976	1034.733444	-164.824656	365.963434	990.783740	-138.890016	308.368567	1056.719453	-193.735996	482.917957	897.724447	-168.401588	473.698850	874.226160	-280.318352	460.237723	787.265532	-151.177002	440.599567	702.486086	-165.421743	384.051414	635.844277	-161.368243	453.454159	696.747592	-204.347821	319.806649	534.027916	-164.191049	327.904678	547.197782	-245.296468	525.608539	461.154283	-192.836234	414.297703	454.473722	-136.030677	444.063241	465.834603	-243.147002	192.725065	909.619429	-531.708821	257.540236	851.208940	-531.872119	286.623214	870.305339	-519.930296	284.004006	766.398803	-530.194732	333.121197	680.372019	-507.555897	339.615252	652.644857	-404.125897	287.930516	586.541751	-524.434575	265.468183	504.783432	-506.311359	201.136390	441.380160	-503.883456	285.721176	498.291852	-471.148099	138.413861	356.314136	-486.210536	154.766827	347.099819	-409.199865	62.338763	349.732294	-442.999253	277.608246	159.367282	-440.581564	181.116201	205.449190	-503.997702	-164.809746	856.866470	-316.118760	32.760672	81.605805	-515.390783	33.314276	81.161317	-115.642015	
1254	6.2700	541.154832	1187.666960	-146.596304	595.404274	1192.943115	-450.199981	552.722161	1227.792613	-297.852178	512.463931	1093.650922	-298.095840	527.199496	964.411225	-24.498949	686.974040	883.382520	-125.923378	536.797214	992.727771	-646.199878	689.701854	879.058830	-542.258252	21.238912	1137.420071	-361.300537	146.745476	1089.767415	-501.023380	134.005125	1134.523632	-207.035474	186.185517	1057.386790	-469.478371	184.911092	1109.775009	-230.676136	36.435146	1173.620787	-321.108524	51.807979	1173.908795	-404.605266	120.287879	1075.042178	-164.230185	92.398332	1012.669530	-514.652623	210.284106	1046.305921	-157.987836	296.366541	1029.284989	-164.710349	364.329523	984.082046	-137.813098	308.702472	1051.467454	-193.073919	479.751978	886.956991	-168.105197	470.556964	864.719130	-278.010638	457.426031	775.859535	-149.793293	437.721140	689.359470	-167.480397	384.635091	622.885948	-161.320504	452.755842	685.697298	-203.625739	323.535369	520.941870	-165.313306	331.281973	535.010316	-246.120273	531.097010	455.027492	-191.501799	419.503825	444.856614	-135.741779	449.933139	457.738031	-242.395361	195.931992	911.412612	-531.625411	261.696644	854.169812	-531.002151	290.332783	873.654316	-518.839810	289.667236	769.760619	-529.521817	339.192012	683.899071	-507.134665	344.991590	655.855458	-403.592075	292.180622	590.726028	-523.951879	267.164010	509.760969	-505.669577	200.980300	448.262927	-503.449686	287.091732	502.711868	-470.450217	135.627252	365.420576	-485.930138	151.799574	355.798860	-408.816603	59.341016	360.473277	-442.608784	270.267922	165.313854	-440.596119	174.758510	213.617262	-503.883833	-164.780740	856.764763	-316.472987	32.745892	81.569746	-515.399515	33.282028	81.086932	-115.612502	
1255	6.2750	540.708457	1188.116617	-145.267934	596.127717	1191.686646	-449.026988	553.077582	1227.250689	-296.585941	512.133779	1093.314171	-296.202610	526.945986	964.313910	-24.044734	686.915589	883.374608	-125.618590	537.936021	992.805762	-646.225794	689.607365	878.665582	-541.924657	21.444185	1137.606754	-362.617846	147.635685	1090.166734	-501.798489	133.722476	1133.738041	-207.857371	186.995907	1057.851525	-470.082001	184.844025	1108.931421	-231.190619	36.505447	1174.138748	-322.637886	52.260057	1174.335165	-405.940913	119.917497	1072.747775	-166.177888	93.704725	1012.599790	-516.113411	209.665949	1041.907047	-159.723553	296.017278	1024.176478	-163.808130	362.560396	976.948885	-137.410014	309.022286	1045.943900	-192.344866	476.764238	874.512276	-167.273093	467.191461	855.161728	-275.908450	454.187905	764.511819	-148.397883	436.653972	677.869405	-166.784231	385.309297	610.012932	-161.366764	452.390966	674.727834	-202.864515	326.670388	508.747272	-165.447775	335.036052	523.102399	-246.350558	536.116717	447.844095	-190.095974	424.564341	435.063180	-135.504826	455.357513	449.111868	-241.870965	199.316777	913.153529	-531.439075	265.988742	857.071994	-530.172702	294.122982	876.970786	-517.759224	295.428538	773.150214	-529.033332	345.409603	687.509351	-506.617163	350.541776	659.214468	-403.289429	296.643512	595.198446	-523.568491	269.180594	515.025449	-505.186567	201.323829	455.467288	-503.238326	288.842271	507.527019	-470.018504	133.502035	374.744250	-486.013068	149.501776	364.722196	-408.903385	57.041683	371.509796	-442.603675	263.349134	171.566704	-440.662836	168.992231	222.019110	-503.961813	-164.524162	857.450212	-315.334645	32.751370	81.499048	-515.402282	33.253162	81.061196	-115.643600	
